# xmcd
#
# Track frame offsets: 
#        150
#        21890
#        44057
#        59229
#        80587
#        99361
#        116707
#        130725
#        147606
#        169554
#        187120
#        202465
#        232640
#        265186
#        281697
#        312000
#
# Disc length: 4622 seconds
#
# Revision: 4
# Processed by: cddbd v1.5.2PL0 Copyright (c) Steve Scherf et al.
# Submitted via: ExactAudioCopy v1.0b3
#
DISCID=f3120c10
DTITLE=Hans Theessink Band - Bridges
DYEAR=2004
DGENRE=Blues
TTITLE0=Behind The Sun
TTITLE1=Believe The Devil Took Her Hand
TTITLE2=Bridges
TTITLE3=Dream
TTITLE4=Circles
TTITLE5=Running Home
TTITLE6=Brand New Dawn
TTITLE7=Zambezi
TTITLE8=Moses
TTITLE9=Odyssey
TTITLE10=People Get Ready
TTITLE11=What Will The Children Play
TTITLE12=Rain
TTITLE13=Little Girl
TTITLE14=Mbube
TTITLE15=Dangerous Combination (bonus)
EXTD=
EXTT0=
EXTT1=
EXTT2=
EXTT3=
EXTT4=
EXTT5=
EXTT6=
EXTT7=
EXTT8=
EXTT9=
EXTT10=
EXTT11=
EXTT12=
EXTT13=
EXTT14=
EXTT15=
PLAYORDER=
